<svg width="65" height="64" viewBox="0 0 65 64" fill="none" xmlns="http://www.w3.org/2000/svg">
  <path
    d="M24 52C24 64 32 64 32 64C32 64 32 64 32 64H36C36 64 36 64 36 64C36 64 44 64 44 52V12C44 0 36 0 36 0C36 0 36 0 36 0H32C32 0 32 0 32 0C32 0 24 0 24 12V52ZM32 53V11C32 8 33 8 33 8C33 8 33 8 33 8H35C35 8 35 8 35 8C35 8 36 8 36 11V53C36 55.999 35.0007 56 35 56C35 56 35 56 35 56H33C33 56 33 56 33 56C33 56 32 56 32 53Z"
    fill="#E66064" />
  <path
    d="M48 56C48 64 56.0542 64 56.0542 64C56.0542 64 56.0542 64 56.0542 64H60.0546C62.2637 64 64.0546 62.2091 64.0546 60V60C64.0546 57.7909 62.2633 56 60.0542 56V56C60.0542 56 60.0542 56 60.0542 56C60.0542 56 56.0542 56 56.0542 52V10C56.0542 8 57.5542 8 57.5542 8C57.5542 8 57.5542 8 57.5542 8H60.0546C62.2637 8 64.0546 6.20914 64.0546 4V4C64.0546 1.79086 62.2637 0 60.0546 0H56.0542C56.0542 0 56.0542 0 56.0542 0C56.0542 0 48 0 48 8V56Z"
    fill="#3CC962" />
  <path
    d="M0 60C0 64 4 64 4 64C4 64 8 64 8 60V40H12V60C12 64 16 64 16 64C16 64 20 64 20 60V8C20 0 12.0748 0 12.0748 0H7.92521C7.92521 0 0 0 0 8V60ZM8 32V10C8 10 8 8 10 8C12 8 12 10 12 10V32H8Z"
    fill="#C18AFF" />
</svg>
